<?xml version="1.0" encoding="utf-8"?>
<!-- Generator: Adobe Illustrator 19.0.0, SVG Export Plug-In . SVG Version: 6.00 Build 0)  -->
<svg version="1.1" id="Calque_1" xmlns="http://www.w3.org/2000/svg" xmlns:xlink="http://www.w3.org/1999/xlink" x="0px" y="0px"
	 viewBox="0 0 412.5 410" enable-background="new 0 0 412.5 410" xml:space="preserve">
<g>
	<g>
		<g>
			<path fill="#FFFFFF" d="M206.4,4.9l5.2,16.1l0.3,1h1.1h16.9l-13.7,9.8l-0.9,0.6l0.3,1l5.1,15.9l-13.5-9.8l-0.9-0.6l-0.9,0.6
				L192,49.5l5.1-15.9l0.3-1l-0.9-0.6l-13.7-9.8l16.9,0l1.1,0l0.3-1L206.4,4.9 M206.4,0l-6.6,20.6l-21.5,0l17.5,12.6l-6.6,20.3
				l17.2-12.6l17.2,12.6L217,33.1l17.5-12.6H213L206.4,0L206.4,0z"/>
		</g>
		<g>
			<path fill="#FFFFFF" d="M117.3,28.8l5.2,16.1l0.3,1h1.1h16.9l-13.7,9.8l-0.9,0.6l0.3,1l5.1,15.9l-13.5-9.8l-0.9-0.6l-0.9,0.6
				l-13.5,9.8l5.1-15.9l0.3-1l-0.9-0.6L93.8,46l16.9,0l1.1,0l0.3-1L117.3,28.8 M117.3,23.9l-6.6,20.6l-21.5,0l17.5,12.6l-6.5,20.3
				l17.2-12.6l17.2,12.6l-6.5-20.3l17.5-12.6h-21.6L117.3,23.9L117.3,23.9z"/>
		</g>
		<g>
			<path fill="#FFFFFF" d="M52.1,94.2l5.2,16.1l0.3,1h1.1h16.9l-13.7,9.8l-0.9,0.6l0.3,1l5.1,15.9L53,129l-0.9-0.6l-0.9,0.6
				l-13.5,9.8l5.1-15.9l0.3-1l-0.9-0.6l-13.7-9.8l16.9,0l1.1,0l0.3-1L52.1,94.2 M52.1,89.3l-6.6,20.6l-21.5,0l17.5,12.6l-6.6,20.3
				l17.2-12.6l17.2,12.6l-6.6-20.3l17.5-12.6H58.7L52.1,89.3L52.1,89.3z"/>
		</g>
		<g>
			<path fill="#FFFFFF" d="M28.2,183.2l5.2,16.1l0.3,1h1.1h16.9l-13.7,9.8l-0.9,0.6l0.3,1l5.1,15.9L29,218l-0.9-0.6l-0.9,0.6
				l-13.5,9.8l5.1-15.9l0.3-1l-0.9-0.6l-13.7-9.8l16.9,0l1.1,0l0.3-1L28.2,183.2 M28.2,178.3l-6.6,20.6l-21.6,0l17.5,12.6l-6.6,20.3
				l17.2-12.6l17.2,12.6l-6.5-20.3l17.5-12.6H34.8L28.2,178.3L28.2,178.3z"/>
		</g>
		<g>
			<path fill="#FFFFFF" d="M52.1,272.4l5.2,16.1l0.3,1h1.1h16.9l-13.7,9.8l-0.9,0.6l0.3,1l5.1,15.9L53,307.2l-0.9-0.6l-0.9,0.6
				l-13.5,9.9l5.1-15.9l0.3-1l-0.9-0.6l-13.7-9.8l16.9,0l1.1,0l0.3-1L52.1,272.4 M52.1,267.5l-6.6,20.6l-21.5,0l17.5,12.6L34.9,321
				l17.2-12.6L69.3,321l-6.6-20.3l17.5-12.6H58.7L52.1,267.5L52.1,267.5z"/>
		</g>
		<g>
			<path fill="#FFFFFF" d="M117.4,337.8l5.2,16.1l0.3,1h1.1h16.9l-13.7,9.8l-0.9,0.6l0.3,1l5.1,15.9l-13.5-9.8l-0.9-0.6l-0.9,0.6
				l-13.5,9.8l5.1-15.9l0.3-1l-0.9-0.6l-13.7-9.8l16.9,0l1.1,0l0.3-1L117.4,337.8 M117.4,332.9l-6.6,20.6l-21.6,0l17.5,12.6
				l-6.5,20.3l17.2-12.6l17.2,12.6l-6.5-20.3l17.5-12.6H124L117.4,332.9L117.4,332.9z"/>
		</g>
		<g>
			<path fill="#FFFFFF" d="M206.4,361.4l5.2,16.1l0.3,1h1.1h16.9l-13.7,9.8l-0.9,0.6l0.3,1l5.1,15.9l-13.5-9.8l-0.9-0.6l-0.9,0.6
				l-13.5,9.8l5.1-15.9l0.3-1l-0.9-0.6l-13.7-9.8l16.9,0l1.1,0l0.3-1L206.4,361.4 M206.4,356.5l-6.6,20.6l-21.6,0l17.5,12.6
				l-6.5,20.3l17.2-12.6l17.2,12.6l-6.6-20.3l17.5-12.6H213L206.4,356.5L206.4,356.5z"/>
		</g>
		<g>
			<path fill="#FFFFFF" d="M295.4,337.8l5.2,16.1l0.3,1h1.1h16.9l-13.7,9.8l-0.9,0.6l0.3,1l5.1,15.9l-13.5-9.8l-0.9-0.6l-0.9,0.6
				l-13.5,9.8l5.1-15.9l0.3-1l-0.9-0.6l-13.7-9.8l16.9,0l1.1,0l0.3-1L295.4,337.8 M295.4,332.9l-6.6,20.6l-21.5,0l17.5,12.6
				l-6.5,20.3l17.2-12.6l17.2,12.6L306,366l17.5-12.6H302L295.4,332.9L295.4,332.9z"/>
		</g>
		<g>
			<path fill="#FFFFFF" d="M360.7,272.4l5.2,16.1l0.3,1h1.1h16.9l-13.7,9.8l-0.9,0.6l0.3,1l5.1,15.9l-13.5-9.9l-0.9-0.6l-0.9,0.6
				l-13.5,9.9l5.1-15.9l0.3-1l-0.9-0.6l-13.7-9.8l16.9,0l1.1,0l0.3-1L360.7,272.4 M360.7,267.5l-6.6,20.6l-21.5,0l17.5,12.6
				l-6.6,20.3l17.2-12.6l17.2,12.6l-6.6-20.3l17.5-12.6h-21.5L360.7,267.5L360.7,267.5z"/>
		</g>
		<g>
			<path fill="#FFFFFF" d="M384.4,182.9l5.2,16.1l0.3,1h1.1h16.9l-13.7,9.8l-0.9,0.6l0.3,1l5.1,15.9l-13.5-9.9l-0.9-0.6l-0.9,0.6
				l-13.5,9.9l5.1-15.9l0.3-1l-0.9-0.6l-13.7-9.8l16.9,0l1.1,0l0.3-1L384.4,182.9 M384.4,178l-6.6,20.6l-21.6,0l17.5,12.6l-6.5,20.3
				l17.2-12.6l17.2,12.6l-6.5-20.3l17.5-12.6H391L384.4,178L384.4,178z"/>
		</g>
		<g>
			<path fill="#FFFFFF" d="M360.7,93.9l5.2,16.1l0.3,1h1.1h16.9l-13.7,9.8l-0.9,0.6l0.3,1l5.1,15.9l-13.5-9.8l-0.9-0.6l-0.9,0.6
				l-13.5,9.8l5.1-15.9l0.3-1l-0.9-0.6l-13.7-9.8l16.9,0l1.1,0l0.3-1L360.7,93.9 M360.7,89l-6.6,20.6l-21.5,0l17.5,12.5l-6.6,20.3
				l17.2-12.6l17.2,12.6l-6.6-20.3l17.5-12.5h-21.5L360.7,89L360.7,89z"/>
		</g>
		<g>
			<path fill="#FFFFFF" d="M295.6,28.9l5.2,16.1l0.3,1h1.1h16.9l-13.7,9.9l-0.9,0.6l0.3,1l5.1,15.9l-13.5-9.9l-0.9-0.6l-0.9,0.6
				l-13.5,9.9l5.1-15.9l0.3-1l-0.9-0.6L272.2,46l16.9,0l1.1,0l0.3-1L295.6,28.9 M295.6,23.9l-6.6,20.6l-21.6,0L285,57.1l-6.5,20.3
				l17.2-12.6l17.2,12.6l-6.5-20.3l17.5-12.6h-21.6L295.6,23.9L295.6,23.9z"/>
		</g>
	</g>
</g>
</svg>
